<mxfile host="app.diagrams.net" modified="2024-03-19T12:00:00.000Z" agent="Mozilla/5.0" version="21.7.5" etag="your-etag" type="device">
  <diagram id="marketplace-system" name="Marketplace System Design">
    <mxGraphModel dx="1422" dy="762" grid="1" gridSize="10" guides="1" tooltips="1" connect="1" arrows="1" fold="1" page="1" pageScale="1" pageWidth="827" pageHeight="1169" math="0" shadow="0">
      <root>
        <mxCell id="0"/>
        <mxCell id="1" parent="0"/>
        
        <!-- Client Layer -->
        <mxCell id="client-layer" value="Client Layer" style="swimlane;fontStyle=1;align=center;verticalAlign=top;childLayout=stackLayout;horizontal=1;startSize=30;horizontalStack=0;resizeParent=1;resizeParentMax=0;resizeLast=0;collapsible=1;marginBottom=0;fillColor=#f5f5f5;strokeColor=#666666;fontColor=#333333;" vertex="1" parent="1">
          <mxGeometry x="40" y="40" width="200" height="120" as="geometry"/>
        </mxCell>
        <mxCell id="frontend" value="Next.js Frontend&#xa;- User Interface&#xa;- State Management&#xa;- API Communication&#xa;- Real-time Updates" style="text;strokeColor=none;fillColor=none;align=left;verticalAlign=top;spacingLeft=4;spacingRight=4;overflow=hidden;rotatable=0;points=[[0,0.5],[1,0.5]];portConstraint=eastwest;" vertex="1" parent="client-layer">
          <mxGeometry y="30" width="200" height="90" as="geometry"/>
        </mxCell>

        <!-- API Layer -->
        <mxCell id="api-layer" value="API Layer" style="swimlane;fontStyle=1;align=center;verticalAlign=top;childLayout=stackLayout;horizontal=1;startSize=30;horizontalStack=0;resizeParent=1;resizeParentMax=0;resizeLast=0;collapsible=1;marginBottom=0;fillColor=#dae8fc;strokeColor=#6c8ebf;" vertex="1" parent="1">
          <mxGeometry x="320" y="40" width="200" height="160" as="geometry"/>
        </mxCell>
        <mxCell id="spring-api" value="Spring Boot API&#xa;- Request Processing&#xa;- Business Logic&#xa;- Data Validation&#xa;- Service Orchestration" style="text;strokeColor=none;fillColor=none;align=left;verticalAlign=top;spacingLeft=4;spacingRight=4;overflow=hidden;rotatable=0;points=[[0,0.5],[1,0.5]];portConstraint=eastwest;" vertex="1" parent="api-layer">
          <mxGeometry y="30" width="200" height="130" as="geometry"/>
        </mxCell>

        <!-- Database Layer -->
        <mxCell id="db-layer" value="Database Layer" style="swimlane;fontStyle=1;align=center;verticalAlign=top;childLayout=stackLayout;horizontal=1;startSize=30;horizontalStack=0;resizeParent=1;resizeParentMax=0;resizeLast=0;collapsible=1;marginBottom=0;fillColor=#d5e8d4;strokeColor=#82b366;" vertex="1" parent="1">
          <mxGeometry x="600" y="40" width="200" height="120" as="geometry"/>
        </mxCell>
        <mxCell id="postgres" value="PostgreSQL&#xa;- Data Persistence&#xa;- Transaction Management&#xa;- Data Integrity&#xa;- Entity Relationships" style="text;strokeColor=none;fillColor=none;align=left;verticalAlign=top;spacingLeft=4;spacingRight=4;overflow=hidden;rotatable=0;points=[[0,0.5],[1,0.5]];portConstraint=eastwest;" vertex="1" parent="db-layer">
          <mxGeometry y="30" width="200" height="90" as="geometry"/>
        </mxCell>

        <!-- External Services -->
        <mxCell id="ext-layer" value="External Services" style="swimlane;fontStyle=1;align=center;verticalAlign=top;childLayout=stackLayout;horizontal=1;startSize=30;horizontalStack=0;resizeParent=1;resizeParentMax=0;resizeLast=0;collapsible=1;marginBottom=0;fillColor=#ffe6cc;strokeColor=#d79b00;" vertex="1" parent="1">
          <mxGeometry x="320" y="240" width="200" height="120" as="geometry"/>
        </mxCell>
        <mxCell id="services" value="External Integrations&#xa;- Payment Gateway&#xa;- Email Service (MailHog)&#xa;- Message Queue (RabbitMQ)&#xa;- Authentication Service" style="text;strokeColor=none;fillColor=none;align=left;verticalAlign=top;spacingLeft=4;spacingRight=4;overflow=hidden;rotatable=0;points=[[0,0.5],[1,0.5]];portConstraint=eastwest;" vertex="1" parent="ext-layer">
          <mxGeometry y="30" width="200" height="90" as="geometry"/>
        </mxCell>

        <!-- Connections -->
        <mxCell id="conn1" value="" style="endArrow=classic;html=1;exitX=1;exitY=0.5;exitDx=0;exitDy=0;entryX=0;entryY=0.5;entryDx=0;entryDy=0;" edge="1" parent="1" source="client-layer" target="api-layer">
          <mxGeometry width="50" height="50" relative="1" as="geometry">
            <mxPoint x="390" y="420" as="sourcePoint"/>
            <mxPoint x="440" y="370" as="targetPoint"/>
          </mxGeometry>
        </mxCell>
        <mxCell id="conn2" value="" style="endArrow=classic;html=1;exitX=1;exitY=0.5;exitDx=0;exitDy=0;entryX=0;entryY=0.5;entryDx=0;entryDy=0;" edge="1" parent="1" source="api-layer" target="db-layer">
          <mxGeometry width="50" height="50" relative="1" as="geometry">
            <mxPoint x="390" y="420" as="sourcePoint"/>
            <mxPoint x="440" y="370" as="targetPoint"/>
          </mxGeometry>
        </mxCell>
        <mxCell id="conn3" value="" style="endArrow=classic;html=1;exitX=0.5;exitY=1;exitDx=0;exitDy=0;entryX=0.5;entryY=0;entryDx=0;entryDy=0;" edge="1" parent="1" source="api-layer" target="ext-layer">
          <mxGeometry width="50" height="50" relative="1" as="geometry">
            <mxPoint x="390" y="420" as="sourcePoint"/>
            <mxPoint x="440" y="370" as="targetPoint"/>
          </mxGeometry>
        </mxCell>

        <!-- Legend -->
        <mxCell id="legend" value="System Components" style="swimlane;fontStyle=1;align=center;verticalAlign=top;childLayout=stackLayout;horizontal=1;startSize=30;horizontalStack=0;resizeParent=1;resizeParentMax=0;resizeLast=0;collapsible=1;marginBottom=0;fillColor=#f8cecc;strokeColor=#b85450;" vertex="1" parent="1">
          <mxGeometry x="40" y="240" width="200" height="120" as="geometry"/>
        </mxCell>
        <mxCell id="legend-content" value="Client Layer: User Interface&#xa;API Layer: Business Logic&#xa;Database Layer: Data Storage&#xa;External Services: Integrations" style="text;strokeColor=none;fillColor=none;align=left;verticalAlign=top;spacingLeft=4;spacingRight=4;overflow=hidden;rotatable=0;points=[[0,0.5],[1,0.5]];portConstraint=eastwest;" vertex="1" parent="legend">
          <mxGeometry y="30" width="200" height="90" as="geometry"/>
        </mxCell>
      </root>
    </mxGraphModel>
  </diagram>
</mxfile> 